<svg viewBox="0 0 512 512" xmlns="http://www.w3.org/2000/svg">
  <defs>
    <radialGradient id="bg" cx="0.3" cy="0.3" r="1">
      <stop offset="0%" style="stop-color:#FFD700;stop-opacity:0.8"/>
      <stop offset="70%" style="stop-color:#FF6B47;stop-opacity:1"/>
      <stop offset="100%" style="stop-color:#1A1A1A;stop-opacity:1"/>
    </radialGradient>
  </defs>
  
  <!-- Background -->
  <rect width="512" height="512" fill="url(#bg)"/>
  
  <!-- Chicken -->
  <g transform="translate(80, 120) scale(1.8)">
    <!-- Body -->
    <ellipse cx="80" cy="100" rx="50" ry="60" fill="#FFD700" stroke="#333" stroke-width="4"/>
    
    <!-- Head -->
    <circle cx="80" cy="50" r="35" fill="#FFD700" stroke="#333" stroke-width="4"/>
    
    <!-- Comb -->
    <path d="M60 25 L70 15 L80 25 L90 15 L100 25 L95 40 L65 40 Z" fill="#FF4444" stroke="#333" stroke-width="3"/>
    
    <!-- Beak -->
    <path d="M45 50 L30 55 L45 60 Z" fill="#FFA500" stroke="#333" stroke-width="2"/>
    
    <!-- Eye -->
    <circle cx="70" cy="45" r="6" fill="#000"/>
    
    <!-- Wattles -->
    <ellipse cx="65" cy="65" rx="8" ry="12" fill="#FF4444" stroke="#333" stroke-width="2"/>
    <ellipse cx="95" cy="65" rx="8" ry="12" fill="#FF4444" stroke="#333" stroke-width="2"/>
    
    <!-- Wing -->
    <ellipse cx="105" cy="85" rx="20" ry="35" fill="#FFD700" stroke="#333" stroke-width="3"/>
    
    <!-- Tail feathers -->
    <path d="M125 70 Q140 60 145 85 Q140 110 125 100 Z" fill="#FFD700" stroke="#333" stroke-width="3"/>
    <path d="M130 75 Q145 65 150 90 Q145 115 130 105 Z" fill="#FFD700" stroke="#333" stroke-width="3"/>
    
    <!-- Legs -->
    <rect x="70" y="155" width="6" height="25" fill="#FFA500" stroke="#333" stroke-width="2"/>
    <rect x="90" y="155" width="6" height="25" fill="#FFA500" stroke="#333" stroke-width="2"/>
    
    <!-- Feet -->
    <path d="M65 180 L75 185 L70 175 Z" fill="#FFA500" stroke="#333" stroke-width="1"/>
    <path d="M75 180 L85 185 L80 175 Z" fill="#FFA500" stroke="#333" stroke-width="1"/>
    <path d="M85 180 L95 185 L90 175 Z" fill="#FFA500" stroke="#333" stroke-width="1"/>
    <path d="M95 180 L105 185 L100 175 Z" fill="#FFA500" stroke="#333" stroke-width="1"/>
    
    <!-- Poop -->
    <ellipse cx="50" cy="175" rx="12" ry="8" fill="#8B4513" stroke="#333" stroke-width="2"/>
    <ellipse cx="52" cy="168" rx="8" ry="6" fill="#8B4513" stroke="#333" stroke-width="2"/>
    <ellipse cx="48" cy="162" rx="6" ry="4" fill="#8B4513" stroke="#333" stroke-width="2"/>
  </g>
</svg>